<svg xmlns="http://www.w3.org/2000/svg" width="1024" height="1024" viewBox="0 0 1024 1024">
	<defs>
		<radialGradient id="svgID0" cx="54%" cy="38%" r="82%">
			<stop stop-color="#3f2868" />
			<stop offset=".56" stop-color="#211438" />
			<stop offset="1" stop-color="#100a1d" />
		</radialGradient>
		<radialGradient id="svgID1">
			<stop stop-color="#6e5aef" stop-opacity=".36" />
			<stop offset="1" stop-color="#6e5aef" stop-opacity="0" />
		</radialGradient>
		<linearGradient id="svgID2" x1="4" x2="18" y1="4" y2="21" gradientUnits="userSpaceOnUse">
			<stop stop-color="#22ffe9" />
			<stop offset=".56" stop-color="#41bdf0" />
			<stop offset="1" stop-color="#7469ed" />
		</linearGradient>
		<linearGradient id="svgID3" x1="8" x2="16" y1="8" y2="14" gradientUnits="userSpaceOnUse">
			<stop stop-color="#ffd166" />
			<stop offset=".5" stop-color="#ff8a4c" />
			<stop offset="1" stop-color="#ff4f45" />
		</linearGradient>
		<filter id="svgID4" width="170%" height="180%" x="-35%" y="-35%">
			<feDropShadow dx="0" dy=".32" flood-color="#08030f" flood-opacity=".5" stdDeviation=".42" />
		</filter>
	</defs>
	<path fill="url(#svgID0)" d="M0 0h1024v1024H0z" />
	<circle cx="528" cy="487" r="386" fill="url(#svgID1)" />
	<g filter="url(#svgID4)" transform="rotate(-4 1347.724 -1050.085)scale(34)">
		<path fill="url(#svgID2)" d="M5.763 17H20V5H4v13.385zm.692 2L2 22.5V4a1 1 0 011-1h18a1 1 0 011 1v14a1 1 0 01-1 1z" />
		<path fill="url(#svgID3)" d="M14 10.25 17 8v6l-3-2.25V14H7V8h7z" />
	</g>
</svg>

